<svg version="1.1" viewBox="0 0 96 96" xmlns="http://www.w3.org/2000/svg" xmlns:xlink="http://www.w3.org/1999/xlink" id="Icons_Taxi" overflow="hidden"><g><path d=" M 76 52 C 76 53.1 75.1 54 74 54 L 68 54 C 66.9 54 66 53.1 66 52 L 66 50 C 66 48.9 66.9 48 68 48 L 74 48 C 75.1 48 76 48.9 76 50 L 76 52 Z M 24.3 42 L 30.1 28.2 C 30.4 27.5 31.1 27 31.9 27 L 63.9 27 C 64.7 27 65.4 27.5 65.7 28.2 L 71.7 42 L 24.3 42 Z M 30 52 C 30 53.1 29.1 54 28 54 L 22 54 C 20.9 54 20 53.1 20 52 L 20 50 C 20 48.9 20.9 48 22 48 L 28 48 C 29.1 48 30 48.9 30 50 L 30 52 Z M 76 42 L 69.5 26.7 C 68.6 24.4 66.4 23 64 23 L 56 23 L 56 21 C 56 18.8 54.2 17 52 17 L 44 17 C 41.8 17 40 18.8 40 21 L 40 23 L 32 23 C 29.6 23 27.4 24.4 26.5 26.7 L 20 42 C 16.7 42 14 44.7 14 48 L 14 64 C 14 66.2 15.8 68 18 68 L 20 68 L 20 75 C 20 77.2 21.8 79 24 79 L 26 79 C 28.2 79 30 77.2 30 75 L 30 68 L 66 68 L 66 75 C 66 77.2 67.8 79 70 79 L 72 79 C 74.2 79 76 77.2 76 75 L 76 68 L 78 68 C 80.2 68 82 66.2 82 64 L 82 48 C 82 44.7 79.3 42 76 42 Z"/></g></svg>